HIERARCHY
ROOT Hips
{
	OFFSET 0.00 0.00 0.00
	CHANNELS 6 Xposition Yposition Zposition Xrotation Yrotation Zrotation
	JOINT Spine
	{
		OFFSET 0.00000 4.88528 0.00000
		CHANNELS 3 Xrotation Yrotation Zrotation
		JOINT Head
		{
			OFFSET 0.00000 16.49416 0.00000
			CHANNELS 3 Xrotation Yrotation Zrotation
			End Site
			{
				OFFSET 0.00000 4.52755 0.00000
			}
		}
		JOINT LeftShoulder
		{
			OFFSET 0.00000 10.66345 0.00000
			CHANNELS 3 Xrotation Yrotation Zrotation
			JOINT LeftArm
			{
				OFFSET 7.53191 0.00000 0.00000
				CHANNELS 3 Xrotation Yrotation Zrotation
				JOINT LeftForeArm
				{
					OFFSET 10.22920 0.00000 0.00000
					CHANNELS 3 Yrotation Zrotation Xrotation
					JOINT LeftHand
					{
						OFFSET 8.67349 0.00000 0.00000
						CHANNELS 3 Xrotation Yrotation Zrotation
						JOINT LeftHandThumb1
						{
							OFFSET 0.00000 0.00000 0.00000
							CHANNELS 3 Xrotation Zrotation Yrotation
							End Site
							{
								OFFSET 0.00000 0.00000 3.93700
							}
						}
						End Site
						{
							OFFSET 3.93700 0.00000 0.00000
						}
					}
				}
			}
		}
		JOINT RightShoulder
		{
			OFFSET 0.00000 10.66345 0.00000
			CHANNELS 3 Xrotation Yrotation Zrotation
			JOINT RightArm
			{
				OFFSET -7.53191 0.00000 0.00000
				CHANNELS 3 Xrotation Yrotation Zrotation
				JOINT RightForeArm
				{
					OFFSET -10.22920 0.00000 0.00000
					CHANNELS 3 Yrotation Zrotation Xrotation
					JOINT RightHand
					{
						OFFSET -8.67349 0.00000 0.00000
						CHANNELS 3 Xrotation Yrotation Zrotation
						JOINT RightHandThumb1
						{
							OFFSET 0.00000 0.00000 0.00000
							CHANNELS 3 Xrotation Zrotation Yrotation
							End Site
							{
								OFFSET 0.00000 0.00000 3.93700
							}
						}
						End Site
						{
							OFFSET -3.93700 0.00000 0.00000
						}
					}
				}
			}
		}
	}
	JOINT LeftUpLeg
	{
		OFFSET 2.67219 0.00000 0.00000
		CHANNELS 3 Xrotation Yrotation Zrotation
		JOINT LeftLeg
		{
			OFFSET 0.00000 -16.26339 0.00000
			CHANNELS 3 Xrotation Yrotation Zrotation
			JOINT LeftFoot
			{
				OFFSET 0.00000 -14.32816 0.00000
				CHANNELS 3 Xrotation Yrotation Zrotation
				JOINT LeftToeBase
				{
					OFFSET 0.00000 -1.30219 4.85985
					CHANNELS 3 Xrotation Yrotation Zrotation
					End Site
					{
						OFFSET 0.00000 0.00000 2.95275
					}
				}
			}
		}
	}
	JOINT RightUpLeg
	{
		OFFSET -2.67219 0.00000 0.00000
		CHANNELS 3 Xrotation Yrotation Zrotation
		JOINT RightLeg
		{
			OFFSET 0.00000 -16.26339 0.00000
			CHANNELS 3 Xrotation Yrotation Zrotation
			JOINT RightFoot
			{
				OFFSET 0.00000 -14.32816 0.00000
				CHANNELS 3 Xrotation Yrotation Zrotation
				JOINT RightToeBase
				{
					OFFSET 0.00000 -1.30219 4.85985
					CHANNELS 3 Xrotation Yrotation Zrotation
					End Site
					{
						OFFSET 0.00000 0.00000 2.95275
					}
				}
			}
		}
	}
}
MOTION
Frames: 11
Frame Time: 0.008333
 -2.2642 33.0018 -0.7493 4.7378 4.6376 -2.8195 -5.5685 -6.6457 0.1591 12.7156 -5.1771 0.9881 32.2987 33.7697 17.2858 -76.0382 0.0564 -27.4650 1.5840 0.0000 10.9367 0.7075 -5.0273 8.0212 33.1476 -0.0000 26.2537 -8.5214 -5.5574 -32.7059 -22.8108 -2.8504 33.7132 -0.2184 -0.0000 13.2484 0.1602 3.8866 -2.3620 32.8623 0.0000 -24.3270 2.3343 -3.2591 1.6775 -5.9807 0.0000 -0.0000 -0.5159 11.0859 -14.5844 -8.7807 0.0000 -0.0000 0.7689 -0.6242 4.0777 -2.8691 0.0000 0.0000 -4.5241 -12.2928 4.0986 -1.8428 0.0000 -0.0000
 -2.2699 33.0051 -0.7559 4.7740 4.5695 -2.8715 -5.5734 -6.6661 0.1861 12.8169 -5.3112 1.1571 32.4358 33.7347 17.1735 -75.8674 0.1069 -27.5516 1.5492 0.0000 10.8374 0.7205 -5.0028 8.2065 33.1476 -0.0000 26.2537 -8.4081 -5.5973 -32.6001 -22.6300 -2.7951 33.8790 -0.0993 -0.0000 13.0173 0.1891 4.1391 -2.6183 32.8623 0.0000 -24.3270 2.2962 -3.1225 1.7207 -6.0032 0.0000 0.0000 -0.4763 11.1332 -14.5633 -8.9675 -0.0000 -0.0000 0.6624 -0.5340 4.1256 -2.7651 0.0000 -0.0000 -4.5648 -12.3147 4.2091 -1.7532 -0.0000 -0.0000
 -2.2759 33.0079 -0.7627 4.8038 4.5170 -2.9180 -5.5656 -6.7105 0.2004 12.9224 -5.4560 1.3376 32.5756 33.7118 17.0632 -75.8085 0.2498 -27.6553 1.4674 0.0000 10.9144 0.7232 -5.0376 8.1801 33.1476 -0.0000 26.2537 -8.3179 -5.5960 -32.4750 -22.6357 -2.9335 34.0441 0.0457 -0.0000 13.0898 0.2053 4.2805 -2.7485 32.8623 0.0000 -24.3270 2.2569 -3.0100 1.7618 -6.0091 0.0000 0.0000 -0.4580 11.1275 -14.5498 -8.9297 -0.0000 0.0000 0.5741 -0.4625 4.1712 -2.6824 -0.0000 -0.0000 -4.6092 -12.3489 4.2837 -1.7135 -0.0000 0.0000
 -2.2826 33.0107 -0.7684 4.8228 4.4572 -2.9547 -5.5499 -6.7605 0.1999 13.0576 -5.5774 1.5362 32.7039 33.7011 16.9441 -75.6863 0.2785 -27.7921 1.5679 0.0000 10.8770 0.7393 -5.1483 8.1837 33.1476 -0.0000 26.2537 -8.2500 -5.5990 -32.3627 -22.4844 -2.9857 34.2782 0.2144 -0.0000 13.0161 0.1873 4.2258 -2.5403 32.8623 0.0000 -24.3270 2.2327 -2.9059 1.8014 -6.0174 -0.0000 -0.0000 -0.4418 11.1398 -14.5753 -8.8635 0.0000 -0.0000 0.5069 -0.3959 4.2091 -2.6139 0.0000 -0.0000 -4.6613 -12.3831 4.4085 -1.6254 -0.0000 -0.0000
 -2.2912 33.0135 -0.7749 4.8427 4.4093 -2.9872 -5.5308 -6.8115 0.1828 13.1853 -5.7147 1.7677 32.8231 33.6852 16.8465 -75.5312 0.3296 -27.9547 1.6400 0.0000 10.7434 0.7476 -5.1924 8.2046 33.1476 -0.0000 26.2537 -8.1551 -5.6458 -32.2292 -22.5024 -3.1064 34.5235 0.3359 -0.0000 12.9357 0.1973 4.4191 -2.5593 32.8623 0.0000 -24.3270 2.1859 -2.7551 1.8404 -5.9898 0.0000 0.0000 -0.4335 11.0549 -14.6121 -8.9241 -0.0000 -0.0000 0.4425 -0.3225 4.2443 -2.5508 0.0000 -0.0000 -4.7367 -12.4466 4.5429 -1.4817 0.0000 -0.0000
 -2.3010 33.0157 -0.7818 4.8644 4.3627 -3.0113 -5.5155 -6.8712 0.1451 13.3517 -5.8836 2.0348 32.9749 33.7006 16.7529 -75.6313 0.5107 -28.1499 1.7417 0.0000 10.8982 0.7525 -5.2313 8.1970 33.1476 -0.0000 26.2537 -8.0731 -5.7012 -32.1161 -22.3927 -3.1080 34.8526 0.3872 -0.0000 12.7612 0.1891 4.4306 -2.4463 32.8623 0.0000 -24.3270 2.1504 -2.6787 1.8786 -5.9837 -0.0000 -0.0000 -0.4199 11.0436 -14.6566 -8.8817 -0.0000 0.0000 0.3756 -0.2857 4.2765 -2.4849 0.0000 0.0000 -4.8093 -12.4900 4.6585 -1.3860 0.0000 0.0000
 -2.3116 33.0178 -0.7891 4.8884 4.3123 -3.0326 -5.5028 -6.9095 0.0998 13.5117 -6.0419 2.3156 33.0570 33.6846 16.7134 -75.4261 0.5066 -28.3805 1.9685 0.0000 10.6854 0.7572 -5.1907 8.3114 33.1476 -0.0000 26.2537 -8.0085 -5.7737 -31.9871 -22.4336 -3.1993 35.1590 0.3945 -0.0000 12.7833 0.1792 4.5233 -2.2704 32.8623 0.0000 -24.3270 2.1073 -2.6052 1.9161 -5.9695 -0.0000 -0.0000 -0.4093 11.0362 -14.7194 -8.8452 -0.0000 -0.0000 0.3042 -0.2324 4.3096 -2.4231 0.0000 -0.0000 -4.8743 -12.5514 4.7515 -1.3229 0.0000 -0.0000
 -2.3241 33.0194 -0.7965 4.9189 4.2513 -3.0445 -5.4948 -6.9554 0.0320 13.6773 -6.2267 2.6023 33.1115 33.7317 16.6879 -75.5926 0.6991 -28.6306 2.2296 0.0000 11.0423 0.7233 -5.1585 7.9930 33.1476 -0.0000 26.2537 -7.9621 -5.8262 -31.8045 -22.4899 -3.2533 35.4231 0.3396 -0.0000 12.9640 0.1582 4.4847 -2.0220 32.8623 0.0000 -24.3270 2.0577 -2.5206 1.9458 -5.9576 0.0000 -0.0000 -0.3893 11.0058 -14.7399 -8.8623 0.0000 -0.0000 0.2270 -0.1624 4.3370 -2.3732 0.0000 0.0000 -4.8951 -12.6239 4.8054 -1.3844 -0.0000 -0.0000
 -2.3355 33.0207 -0.8040 4.9616 4.1984 -3.0514 -5.5112 -7.0211 -0.0344 13.8779 -6.3679 2.8716 33.1911 33.7249 16.6508 -75.4821 0.6971 -28.8581 2.6206 0.0000 10.9556 0.6786 -5.0653 7.6410 33.1476 -0.0000 26.2537 -7.9161 -5.8703 -31.6548 -22.4540 -3.2266 35.6998 0.2116 -0.0000 13.1088 0.1401 4.5171 -1.7787 32.8623 0.0000 -24.3270 2.0050 -2.5024 1.9718 -5.9639 0.0000 -0.0000 -0.3609 11.0310 -14.7493 -8.8927 0.0000 -0.0000 0.1353 -0.1262 4.3603 -2.3135 0.0000 -0.0000 -4.9545 -12.7180 4.8213 -1.3165 0.0000 -0.0000
 -2.3476 33.0210 -0.8099 5.0040 4.1258 -3.0623 -5.5388 -7.0592 -0.0977 14.1175 -6.5262 3.1548 33.2212 33.7050 16.6591 -75.5570 0.8057 -29.0766 3.0837 0.0000 11.1029 0.6164 -5.0686 6.9432 33.1476 -0.0000 26.2537 -7.8617 -5.9138 -31.4967 -22.3892 -3.1584 35.9562 0.0205 -0.0000 13.2455 0.1057 4.4944 -1.3490 32.8623 0.0000 -24.3270 1.9693 -2.5113 2.0027 -5.9933 0.0000 0.0000 -0.3224 11.1092 -14.7194 -8.9383 -0.0000 -0.0000 0.0555 -0.1121 4.3861 -2.2753 0.0000 -0.0000 -4.9787 -12.7748 4.8713 -1.3331 -0.0000 0.0000
 -2.3588 33.0218 -0.8164 5.0383 4.0413 -3.0625 -5.5527 -7.0955 -0.1604 14.3322 -6.7114 3.4125 33.2482 33.6623 16.6623 -75.7601 0.9695 -29.2577 3.5812 0.0000 11.3595 0.5547 -4.9748 6.3703 33.1476 -0.0000 26.2537 -7.7265 -5.9824 -31.3640 -22.4252 -3.1734 36.2185 -0.1053 -0.0000 13.2947 0.0704 4.4382 -0.9100 32.8623 0.0000 -24.3270 1.9326 -2.4835 2.0173 -6.0069 0.0000 0.0000 -0.2914 11.1614 -14.6837 -8.9843 -0.0000 -0.0000 -0.0218 -0.1132 4.4002 -2.2279 -0.0000 -0.0000 -4.9933 -12.8037 4.8832 -1.3915 -0.0000 -0.0000
